<svg width="120" height="120" viewBox="0 0 120 120" fill="none" xmlns="http://www.w3.org/2000/svg">
<circle cx="60" cy="60" r="60" fill="#FFFFEB"/>
<mask id="mask0_304_943" style="mask-type:alpha" maskUnits="userSpaceOnUse" x="0" y="0" width="120" height="120">
<circle cx="60" cy="60" r="60" fill="#C4C4C4"/>
</mask>
<g mask="url(#mask0_304_943)">
<path d="M45.66 65.6518L-4.5686 52.3902C-5.71457 52.0876 -6.88883 52.7713 -7.19139 53.9173L-14.4519 81.4166C-14.7544 82.5625 -14.0707 83.7368 -12.9248 84.0394L37.3039 97.301C38.4498 97.6035 39.6241 96.9198 39.9267 95.7738L47.1871 68.2746C47.4897 67.1286 46.806 65.9543 45.66 65.6518Z" fill="#E0E0E0"/>
<path d="M37.319 88.9885L-8.83029 76.8081C-9.03632 76.7539 -9.22966 76.6596 -9.39923 76.5306C-9.56881 76.4016 -9.7113 76.2405 -9.81857 76.0564C-9.92584 75.8723 -9.99577 75.6689 -10.0244 75.4578C-10.053 75.2467 -10.0397 75.032 -9.98529 74.826L-5.15758 56.488C-5.10379 56.2817 -5.00976 56.0881 -4.8809 55.9182C-4.75203 55.7484 -4.59086 55.6057 -4.40667 55.4984C-4.22247 55.391 -4.01888 55.3212 -3.80759 55.2928C-3.5963 55.2644 -3.38148 55.2781 -3.17549 55.333L42.9738 67.517C43.3892 67.6273 43.7439 67.898 43.9598 68.2697C44.1757 68.6414 44.2352 69.0836 44.1252 69.4991L39.2938 87.8335C39.1842 88.248 38.9149 88.6022 38.5448 88.8187C38.1748 89.0351 37.734 89.0962 37.319 88.9885Z" fill="#FAFAFA"/>
<path d="M41.9658 77.6113L-7.25879 64.6148L-8.43725 69.0782L40.7874 82.0748L41.9658 77.6113Z" fill="#EBEBEB"/>
<path d="M32.3136 72.5766L3.61308 64.9989C2.92823 64.8181 2.22647 65.2267 2.04565 65.9115L-0.137336 74.1796C-0.318154 74.8645 0.0904459 75.5663 0.775301 75.7471L29.4759 83.3247C30.1607 83.5056 30.8625 83.097 31.0433 82.4121L33.2263 74.144C33.4071 73.4591 32.9985 72.7574 32.3136 72.5766Z" fill="#E0E0E0"/>
<path d="M22.8187 73.1992L11.5703 70.2294L10.1826 75.4854L21.431 78.4553L22.8187 73.1992Z" fill="#FAFAFA"/>
<path d="M21.564 78.6772L9.96289 75.6312L11.4422 70.0238L23.0433 73.0807L21.564 78.6772ZM10.4074 75.3543L21.3053 78.2291L22.5987 73.3285L11.7009 70.4501L10.4074 75.3543Z" fill="#E0E0E0"/>
<path d="M29.7296 95.3064C29.7296 95.3064 29.7296 95.2663 29.7004 95.1825C29.6713 95.0987 29.6567 94.9639 29.6276 94.8182C29.5656 94.4793 29.4745 93.9984 29.3652 93.3826C29.143 92.1219 28.826 90.3184 28.4361 88.0958L28.4871 88.1505L13.7271 84.281L-1.2115 80.3132L-1.13864 80.284L-4.20287 84.5215L-5.04453 85.6655L-5.26678 85.9607C-5.32144 86.0299 -5.34694 86.0627 -5.35059 86.059C-5.33443 86.0195 -5.31231 85.9826 -5.285 85.9497L-5.07732 85.6437L-4.26481 84.4777L-1.25158 80.2039L-1.22244 80.1674H-1.17507L13.7635 84.0879L28.5126 88.0047H28.5564V88.0484L29.4563 93.3498C29.551 93.9692 29.6276 94.4429 29.6822 94.8072C29.7041 94.9639 29.7223 95.0878 29.7332 95.1716C29.7374 95.2165 29.7362 95.2618 29.7296 95.3064Z" fill="#F5F5F5"/>
<path d="M14.3464 86.6822C14.2927 86.8855 14.1798 87.0684 14.0221 87.2077C13.8645 87.347 13.669 87.4364 13.4606 87.4646C13.2521 87.4928 13.0399 87.4586 12.8509 87.3663C12.6619 87.274 12.5045 87.1277 12.3986 86.9459C12.2926 86.7641 12.243 86.555 12.2559 86.3451C12.2688 86.1351 12.3437 85.9336 12.471 85.7662C12.5984 85.5988 12.7725 85.4728 12.9714 85.4043C13.1704 85.3358 13.3851 85.3279 13.5886 85.3814C13.7238 85.417 13.8506 85.4789 13.9619 85.5635C14.0732 85.6481 14.1667 85.7539 14.2371 85.8747C14.3075 85.9955 14.3534 86.129 14.3721 86.2675C14.3909 86.4061 14.3821 86.547 14.3464 86.6822Z" fill="#EBEBEB"/>
<path d="M38.1501 95.1679C38.0964 95.3713 37.9835 95.5542 37.8259 95.6935C37.6682 95.8327 37.4728 95.9221 37.2643 95.9504C37.0558 95.9786 36.8437 95.9444 36.6546 95.8521C36.4656 95.7597 36.3082 95.6134 36.2023 95.4317C36.0964 95.2499 36.0467 95.0408 36.0596 94.8308C36.0725 94.6208 36.1474 94.4194 36.2747 94.252C36.4021 94.0845 36.5762 93.9586 36.7752 93.8901C36.9741 93.8216 37.1888 93.8136 37.3923 93.8672C37.5275 93.9028 37.6544 93.9646 37.7656 94.0493C37.8769 94.1339 37.9704 94.2397 38.0408 94.3605C38.1112 94.4813 38.1571 94.6148 38.1758 94.7533C38.1946 94.8919 38.1859 95.0328 38.1501 95.1679Z" fill="#EBEBEB"/>
<path d="M45.9792 67.8267C45.9255 68.0301 45.8126 68.213 45.655 68.3522C45.4973 68.4915 45.3019 68.5809 45.0934 68.6091C44.8849 68.6373 44.6728 68.6031 44.4837 68.5108C44.2947 68.4185 44.1373 68.2722 44.0314 68.0904C43.9255 67.9087 43.8758 67.6996 43.8887 67.4896C43.9016 67.2796 43.9765 67.0782 44.1038 66.9107C44.2312 66.7433 44.4053 66.6174 44.6043 66.5489C44.8032 66.4804 45.0179 66.4724 45.2214 66.5259C45.3566 66.5615 45.4835 66.6234 45.5947 66.708C45.706 66.7927 45.7995 66.8984 45.8699 67.0192C45.9403 67.14 45.9862 67.2735 46.0049 67.4121C46.0237 67.5506 46.015 67.6915 45.9792 67.8267Z" fill="#EBEBEB"/>
<path d="M26.2797 83.8984C26.2797 83.9494 21.1058 82.6305 14.7587 80.9544C8.41167 79.2784 3.27061 77.8793 3.28519 77.8173C3.29976 77.7554 8.45539 79.0853 14.8061 80.7613C21.1568 82.4374 26.2906 83.8474 26.2797 83.8984Z" fill="#E0E0E0"/>
<path d="M36.3024 72.0423C36.3024 72.0934 28.2428 70.0129 18.336 67.3968C8.42918 64.7807 0.406073 62.6201 0.417003 62.5691C0.427934 62.5181 8.47291 64.5986 18.387 67.2146C28.3011 69.8307 36.317 71.9877 36.3024 72.0423Z" fill="#E0E0E0"/>
<path d="M34.3855 69.0728C34.3855 69.1238 27.4628 67.3421 18.9478 65.094C10.4328 62.8459 3.53916 60.9841 3.55373 60.9331C3.56831 60.8821 10.4765 62.6638 18.9951 64.9118C27.5138 67.1599 34.4001 69.0145 34.3855 69.0728Z" fill="#E0E0E0"/>
<path d="M21.0768 75.3835C21.2768 74.5723 21.7131 73.8387 22.3304 73.2758C22.9478 72.7129 23.7183 72.3459 24.5445 72.2213C25.3706 72.0968 26.2151 72.2203 26.971 72.5763C27.7268 72.9322 28.36 73.5046 28.7902 74.2208C29.2204 74.9369 29.4283 75.7647 29.3876 76.5992C29.3468 77.4337 29.0593 78.2373 28.5613 78.9081C28.0634 79.579 27.3775 80.0869 26.5905 80.3675C25.8036 80.6482 24.9511 80.6889 24.141 80.4844C23.0599 80.2116 22.1307 79.5219 21.5565 78.5661C20.9824 77.6103 20.8099 76.4661 21.0768 75.3835Z" fill="#EBEBEB"/>
<path d="M25.7768 78.3857C25.602 78.4399 25.4205 78.4693 25.2376 78.4732L25.0153 78.9323L24.1992 78.7392V78.2327C24.0371 78.148 23.8875 78.0414 23.7547 77.9157L23.2737 78.0833L22.8328 77.3546L23.1972 76.9902C23.1428 76.8155 23.1133 76.634 23.1097 76.451L22.6543 76.2324L22.8438 75.4126H23.3502C23.4349 75.2505 23.5415 75.1009 23.6672 74.9681L23.5032 74.4908L24.2137 74.0463L24.5781 74.4106C24.7531 74.3567 24.9344 74.3261 25.1173 74.3195L25.3396 73.8641L26.1558 74.0535V74.56C26.3172 74.6472 26.4666 74.755 26.6003 74.8806L27.0812 74.713L27.5221 75.4417L27.1577 75.8061C27.211 75.9812 27.2416 76.1624 27.2488 76.3453L27.7043 76.5676L27.5148 77.3838H27.0083C26.9217 77.5446 26.8152 77.6939 26.6914 77.8283L26.8553 78.3056L26.1266 78.7501L25.7623 78.3857H25.7768Z" fill="#FAFAFA"/>
<path d="M4.04575 71.1059C4.24574 70.2947 4.68205 69.5612 5.29939 68.9983C5.91672 68.4353 6.68729 68.0683 7.51343 67.9438C8.33956 67.8193 9.18407 67.9428 9.93992 68.2988C10.6958 68.6547 11.3289 69.227 11.7591 69.9432C12.1894 70.6594 12.3973 71.4872 12.3565 72.3217C12.3158 73.1561 12.0282 73.9597 11.5303 74.6306C11.0323 75.3015 10.3464 75.8094 9.55951 76.09C8.77258 76.3706 7.92005 76.4113 7.10998 76.2069C6.02937 75.9332 5.1008 75.2434 4.52677 74.2878C3.95275 73.3323 3.77984 72.1885 4.04575 71.1059Z" fill="#EBEBEB"/>
<path d="M8.74238 74.1082C8.56741 74.1621 8.3861 74.1927 8.20314 74.1993L7.98088 74.6547L7.16472 74.4653V73.9588C7.0034 73.8729 6.85397 73.7664 6.72021 73.6418L6.24655 73.8094L5.80203 73.0807L6.16639 72.7164C6.11311 72.5412 6.0825 72.36 6.0753 72.1771L5.61621 71.9877L5.80567 71.1715H6.31213C6.39933 71.0101 6.50711 70.8607 6.63276 70.727L6.46516 70.246L7.17565 69.8015L7.54001 70.1659C7.71527 70.1138 7.8965 70.0844 8.07926 70.0784L8.30151 69.623L9.11767 69.8125V70.3189C9.27975 70.4036 9.42934 70.5102 9.56218 70.6359L10.0431 70.4719L10.4876 71.1824L10.1233 71.5468C10.1777 71.7215 10.2071 71.9031 10.2107 72.086L10.6662 72.3083L10.4767 73.1244H9.96297C9.87832 73.2865 9.77165 73.4361 9.64598 73.569L9.80995 74.0499L9.08123 74.4908L8.71688 74.1264L8.74238 74.1082Z" fill="white"/>
<path d="M118.574 39.0864L119.004 39.8151C119.486 40.6164 120.188 41.2626 121.027 41.6769L121.773 42.0413L121.045 42.4712C120.243 42.9532 119.597 43.6551 119.183 44.4934L118.819 45.2221L118.389 44.4934C117.907 43.6921 117.205 43.0459 116.366 42.6315L115.638 42.2672L116.366 41.8373C117.168 41.3553 117.814 40.6534 118.228 39.8151L118.574 39.0864Z" fill="#E0E0E0"/>
<path d="M41.1597 28.7131L41.5897 29.4418C42.0704 30.2429 42.771 30.8892 43.6082 31.3037L44.3369 31.6681L43.6082 32.098C42.808 32.5802 42.163 33.2821 41.75 34.1202L41.3856 34.8489L40.9593 34.1202C40.4811 33.3286 39.789 32.6882 38.9627 32.2729L38.2012 31.9085L38.9299 31.4786C39.7312 30.9966 40.3774 30.2948 40.7917 29.4564L41.1597 28.7131Z" fill="#E0E0E0"/>
<path d="M108.273 88.748L108.488 89.1124C108.729 89.5125 109.079 89.835 109.498 90.0415L109.862 90.2273L109.498 90.4387C109.099 90.6811 108.777 91.0309 108.569 91.4479L108.386 91.8123L108.171 91.4479C107.931 91.0479 107.581 90.7253 107.162 90.5188L106.798 90.333L107.162 90.1217C107.561 89.8802 107.884 89.5301 108.091 89.1124L108.273 88.748Z" fill="#E0E0E0"/>
<path d="M6.13711 100.648L6.35208 101.012C6.59099 101.412 6.94014 101.735 7.3577 101.941L7.72206 102.127L7.3577 102.342C6.97165 102.579 6.65885 102.918 6.4541 103.322L6.26828 103.687L6.05695 103.322C5.81078 102.934 5.45958 102.623 5.04404 102.426L4.67969 102.229L5.04404 102.018C5.44411 101.777 5.76662 101.427 5.97315 101.009L6.13711 100.648Z" fill="#E0E0E0"/>
<path d="M50.5158 25.7509L50.7307 26.1153C50.9708 26.5143 51.3196 26.8366 51.7363 27.0444L52.1007 27.2302L51.7363 27.4415C51.3371 27.6829 51.0148 28.0329 50.8072 28.4508L50.6251 28.8151L50.4101 28.4508C50.1725 28.0587 49.8289 27.7417 49.419 27.5363L49.0547 27.3504L49.419 27.1391C49.818 26.8985 50.1393 26.5481 50.3445 26.1298L50.5158 25.7509Z" fill="#E0E0E0"/>
<path d="M11.5041 44.8615C11.4878 45.1659 11.3816 45.4586 11.199 45.7026C11.0164 45.9466 10.7655 46.1311 10.4781 46.2325C10.1907 46.334 9.87968 46.348 9.58433 46.2727C9.28898 46.1974 9.02259 46.0362 8.81883 45.8095C8.61507 45.5828 8.4831 45.3008 8.43961 44.9992C8.39611 44.6975 8.44303 44.3897 8.57445 44.1147C8.70587 43.8397 8.91588 43.6098 9.17792 43.4541C9.43997 43.2985 9.74229 43.224 10.0467 43.2401C10.4546 43.2627 10.837 43.446 11.1102 43.7499C11.3833 44.0538 11.5249 44.4535 11.5041 44.8615Z" fill="#263238"/>
<path d="M11.3073 44.3369C11.2308 44.3915 10.2944 43.0616 9.46371 41.258C8.63297 39.4545 8.00628 38.008 8.06094 37.9788C8.11559 37.9497 8.94997 39.3342 9.76977 41.1269C10.5896 42.9195 11.3839 44.2968 11.3073 44.3369Z" fill="#263238"/>
<path d="M10.9868 36.4194C11.0706 36.4522 10.6989 37.2356 9.80625 37.742C8.91358 38.2485 8.05006 38.1829 8.06464 38.1064C8.07921 38.0299 8.83342 37.9278 9.63501 37.4615C10.4366 36.9951 10.903 36.3611 10.9868 36.4194Z" fill="#263238"/>
<path d="M11.5774 37.9023C11.6685 37.9278 11.3297 38.7257 10.4224 39.1593C9.51518 39.5929 8.68445 39.367 8.72088 39.2832C8.75732 39.1994 9.48239 39.2468 10.2767 38.8533C11.071 38.4598 11.4936 37.8513 11.5774 37.9023Z" fill="#263238"/>
<path d="M24.4818 47.9403C24.1622 48.2484 23.7584 48.4548 23.3215 48.5334C22.8846 48.612 22.4342 48.5592 22.0273 48.3819C21.6204 48.2045 21.2752 47.9104 21.0354 47.5368C20.7956 47.1633 20.6719 46.727 20.6801 46.2832C20.6882 45.8393 20.8278 45.4079 21.0812 45.0434C21.3345 44.6789 21.6903 44.3977 22.1035 44.2354C22.5166 44.0731 22.9686 44.0369 23.4024 44.1315C23.8361 44.2261 24.232 44.4472 24.5401 44.7668C24.9523 45.1958 25.1776 45.7707 25.1667 46.3656C25.1557 46.9604 24.9095 47.5267 24.4818 47.9403Z" fill="#263238"/>
<path d="M24.796 47.1679C24.581 47.1351 24.847 44.7668 25.7542 42.0123C26.6615 39.2577 27.4703 37.1007 27.6671 37.1481C27.8638 37.1955 27.4011 39.5201 26.4975 42.2491C25.5939 44.9781 25.0073 47.2116 24.796 47.1679Z" fill="#263238"/>
<path d="M34.0252 40.6824C34.047 40.8645 32.2034 41.1414 30.1156 40.2196C29.22 39.8448 28.4457 39.2294 27.8785 38.4416C27.4522 37.8112 27.4485 37.3048 27.5433 37.2902C27.638 37.2756 27.8384 37.6546 28.3084 38.0954C28.9287 38.6903 29.6506 39.1691 30.4399 39.5091C32.2981 40.3471 34.0361 40.4382 34.0252 40.6824Z" fill="#263238"/>
<path d="M30.8403 51.46C30.5203 51.7688 30.1158 51.9757 29.6782 52.0546C29.2405 52.1335 28.7893 52.0808 28.3816 51.9032C27.9738 51.7256 27.628 51.4311 27.3877 51.0569C27.1474 50.6827 27.0235 50.2456 27.0316 49.8009C27.0398 49.3563 27.1796 48.9241 27.4335 48.5589C27.6874 48.1938 28.0438 47.9121 28.4578 47.7496C28.8717 47.5871 29.3246 47.551 29.7591 47.6459C30.1936 47.7408 30.5901 47.9624 30.8986 48.2828C31.3119 48.712 31.538 49.2877 31.527 49.8834C31.5161 50.4792 31.2691 51.0462 30.8403 51.46Z" fill="#263238"/>
<path d="M31.1495 50.7058C30.9382 50.673 31.2042 48.3047 32.1114 45.5465C33.0187 42.7883 33.8276 40.6532 34.0243 40.6824C34.2211 40.7115 33.7583 43.058 32.8547 45.7833C31.9511 48.5087 31.3645 50.7386 31.1495 50.7058Z" fill="#263238"/>
<path d="M33.6131 42.1616C33.6641 42.3584 31.9079 42.7409 29.9331 41.943C27.9583 41.1451 26.9381 39.6767 27.1094 39.5674C27.2806 39.4581 28.4356 40.5257 30.221 41.2179C32.0063 41.9102 33.5985 41.9321 33.6131 42.1616Z" fill="#263238"/>
<path d="M109.978 75.9301C109.91 76.2599 109.747 76.5623 109.507 76.799C109.268 77.0356 108.963 77.196 108.633 77.2596C108.302 77.3233 107.96 77.2875 107.65 77.1567C107.34 77.0259 107.075 76.806 106.89 76.5249C106.705 76.2438 106.607 75.914 106.609 75.5773C106.612 75.2407 106.714 74.9123 106.903 74.6336C107.092 74.355 107.359 74.1387 107.671 74.0121C107.983 73.8855 108.326 73.8543 108.655 73.9225C108.874 73.9672 109.082 74.0547 109.267 74.1798C109.452 74.305 109.61 74.4654 109.733 74.6519C109.856 74.8384 109.941 75.0473 109.983 75.2666C110.025 75.4859 110.023 75.7114 109.978 75.9301Z" fill="#263238"/>
<path d="M109.84 75.3253C109.69 75.3982 108.845 73.8023 108.236 71.6818C107.628 69.5612 107.209 67.8815 107.351 67.8269C107.493 67.7722 108.2 69.4228 108.808 71.5142C109.417 73.6056 109.978 75.267 109.84 75.3253Z" fill="#263238"/>
<path d="M112.835 67.3314C112.926 67.4334 111.888 68.4026 110.197 68.7086C109.478 68.8581 108.731 68.8051 108.04 68.5556C107.505 68.3443 107.286 68.0309 107.337 67.9799C107.388 67.9289 107.669 68.071 108.161 68.1548C108.801 68.2624 109.455 68.2538 110.092 68.1293C111.611 67.8597 112.737 67.1747 112.835 67.3314Z" fill="#263238"/>
<path d="M115.443 75.4236C115.375 75.7524 115.211 76.0536 114.972 76.2891C114.732 76.5245 114.429 76.6838 114.099 76.7467C113.769 76.8096 113.428 76.7732 113.119 76.6423C112.81 76.5114 112.546 76.2917 112.362 76.0111C112.178 75.7305 112.08 75.4015 112.083 75.0658C112.086 74.73 112.188 74.4026 112.376 74.1248C112.565 73.8471 112.832 73.6315 113.143 73.5053C113.454 73.3792 113.796 73.3481 114.124 73.416C114.343 73.4612 114.55 73.5489 114.735 73.6743C114.919 73.7996 115.077 73.9601 115.2 74.1465C115.322 74.333 115.407 74.5417 115.449 74.7609C115.491 74.98 115.489 75.2052 115.443 75.4236Z" fill="#263238"/>
<path d="M115.32 74.8189C115.174 74.8917 114.329 73.2958 113.717 71.1753C113.104 69.0547 112.693 67.3751 112.835 67.3204C112.977 67.2658 113.684 68.9163 114.292 71.0077C114.901 73.0991 115.469 74.7496 115.32 74.8189Z" fill="#263238"/>
<path d="M113.21 68.4317C113.323 68.5337 112.391 69.5248 110.817 69.8673C109.243 70.2098 107.978 69.7288 108.04 69.5867C108.102 69.4446 109.275 69.6195 110.689 69.2916C112.103 68.9637 113.101 68.2933 113.21 68.4317Z" fill="#263238"/>
<path d="M16.8926 65.1561C16.7586 65.4032 16.5541 65.6048 16.3051 65.7354C16.0562 65.866 15.774 65.9195 15.4946 65.8893C15.2151 65.8591 14.9509 65.7465 14.7356 65.5658C14.5203 65.3851 14.3636 65.1444 14.2854 64.8744C14.2072 64.6044 14.2111 64.3172 14.2966 64.0494C14.382 63.7816 14.5451 63.5452 14.7653 63.3704C14.9854 63.1956 15.2525 63.0901 15.5327 63.0675C15.8129 63.0448 16.0935 63.106 16.3388 63.2433C16.6641 63.4252 16.9046 63.728 17.0083 64.086C17.1119 64.4441 17.0704 64.8285 16.8926 65.1561Z" fill="#263238"/>
<path d="M16.9368 64.6424C16.802 64.6642 16.5142 63.185 16.5397 61.3632C16.5652 59.5414 16.6453 58.084 16.7692 58.084C16.8931 58.084 17.0607 59.5633 17.0316 61.3632C17.0024 63.1631 17.068 64.6242 16.9368 64.6424Z" fill="#263238"/>
<path d="M21.2689 58.9913C21.3163 59.0969 20.2524 59.6143 18.8278 59.4503C18.2174 59.3968 17.6343 59.1734 17.1444 58.8054C16.7801 58.5067 16.6708 58.2042 16.7218 58.1751C16.7728 58.1459 16.9659 58.3318 17.3375 58.5139C17.822 58.7568 18.3468 58.9087 18.886 58.9621C20.1649 59.1188 21.2289 58.8419 21.2689 58.9913Z" fill="#263238"/>
<path d="M21.3892 66.0816C21.2552 66.328 21.0512 66.5292 20.8028 66.6596C20.5545 66.79 20.273 66.8438 19.9941 66.8141C19.7151 66.7845 19.4513 66.6727 19.2359 66.493C19.0205 66.3133 18.8633 66.0737 18.7842 65.8046C18.705 65.5355 18.7075 65.249 18.7913 64.9813C18.8751 64.7136 19.0364 64.4768 19.2549 64.3009C19.4733 64.1249 19.7391 64.0177 20.0185 63.9929C20.2979 63.9681 20.5784 64.0267 20.8244 64.1614C21.1535 64.3416 21.3978 64.6448 21.5037 65.0048C21.6095 65.3647 21.5684 65.7519 21.3892 66.0816Z" fill="#263238"/>
<path d="M21.4398 65.5715C21.3049 65.5934 21.0171 64.1141 21.0426 62.2923C21.0681 60.4705 21.1483 59.0131 21.2758 59.0131C21.4033 59.0131 21.5636 60.4924 21.5345 62.2923C21.5053 64.0922 21.5673 65.5497 21.4398 65.5715Z" fill="#263238"/>
<path d="M21.3014 59.9641C21.367 60.0734 20.3832 60.6345 19.0424 60.5288C17.7016 60.4232 16.8125 59.7309 16.8927 59.6325C16.9729 59.5341 17.8728 59.9568 19.0788 60.0369C20.2849 60.1171 21.2468 59.8256 21.3014 59.9641Z" fill="#263238"/>
<path d="M52.1376 66.7386C54.4825 65.7073 55.5473 62.9704 54.5161 60.6255C53.4848 58.2806 50.7479 57.2157 48.403 58.247C46.0581 59.2783 44.9932 62.0152 46.0245 64.3601C47.0558 66.705 49.7927 67.7698 52.1376 66.7386Z" fill="#FF7A3E"/>
<path d="M85.9486 24.964C86.5617 24.5188 87.2695 24.2214 88.0166 24.095C88.7636 23.9685 89.5298 24.0166 90.2553 24.2353C90.8382 24.4211 91.4613 24.7162 92.037 24.5013C92.4487 24.3446 92.722 23.962 93.0572 23.6778C93.323 23.4756 93.6268 23.329 93.9505 23.2466C94.2742 23.1643 94.6112 23.148 94.9413 23.1987C95.2714 23.2493 95.588 23.3659 95.8721 23.5415C96.1562 23.7171 96.4021 23.9481 96.5951 24.2207C96.738 24.5202 96.9301 24.7936 97.1635 25.0296C98.2237 25.853 99.9107 23.8891 100.964 24.7235C100.4 24.8311 99.8815 25.1067 99.4771 25.5142C99.2814 25.7225 99.1613 25.9906 99.1362 26.2754C99.1111 26.5602 99.1824 26.8451 99.3387 27.0845C100.26 28.2432 102.447 26.4178 103.518 27.4489C104.097 27.9991 103.988 29.1322 104.717 29.4528C105.014 29.5376 105.323 29.5696 105.631 29.5476C106.146 29.6052 106.62 29.8554 106.958 30.2481C107.296 30.6408 107.473 31.1468 107.453 31.6645C107.384 32.5499 106.753 33.53 107.3 34.215C107.639 34.6486 108.262 34.6996 108.808 34.7141C108.652 35.5086 108.315 36.2565 107.825 36.9003C108.438 37.4576 108.811 38.231 108.866 39.0579C108.921 39.8848 108.654 40.7008 108.12 41.3345C108.75 41.9613 109.253 42.7035 109.603 43.5206C109.894 44.3586 109.814 45.3934 109.173 46.0055C109.012 46.1282 108.87 46.273 108.75 46.4355C108.655 46.6337 108.614 46.8539 108.633 47.0731C108.655 47.9147 108.87 48.7673 108.695 49.5908C108.52 50.4142 107.741 51.2122 106.928 50.9936C106.739 50.9425 106.538 50.8405 106.356 50.917C106.291 50.9526 106.234 51.0009 106.188 51.0592C106.143 51.1174 106.109 51.1843 106.09 51.2559C105.928 51.8401 105.86 52.4465 105.89 53.0522C105.915 53.6639 105.708 54.2624 105.31 54.7282C104.873 55.1472 104.032 55.1691 103.744 54.6371L103.951 57.5301C103.991 58.1058 103.984 58.7871 103.514 59.1187C102.895 59.5523 102.024 58.9657 101.743 58.2661C101.463 57.5665 101.492 56.7686 101.19 56.08C101.038 55.812 100.916 55.5286 100.825 55.2347C100.819 54.9909 100.754 54.7522 100.636 54.5387C100.319 54.1744 99.6557 54.5825 99.6192 55.0707C99.5828 55.5589 99.8961 55.9889 100.133 56.4188C100.37 56.8487 100.516 57.4244 100.195 57.7961C100.042 57.9746 99.8014 58.0657 99.652 58.2479C99.1346 58.8782 100.042 59.749 100.016 60.5652C99.9982 61.17 99.4735 61.6255 98.978 61.9679C98.3695 62.387 97.3019 62.6201 97.0979 61.9133C97.073 61.6591 97.0644 61.4035 97.0724 61.1481C96.9853 60.8605 96.8304 60.5981 96.6206 60.383C96.1638 59.7895 95.8914 59.075 95.8372 58.328C96.3109 59.1916 96.7772 60.3065 96.2016 61.0971C95.9193 61.4 95.5925 61.6581 95.2324 61.8623C94.5765 62.3359 94.0992 63.0209 93.447 63.5055C92.7948 63.9901 91.8293 64.2342 91.2026 63.7096C91.2539 64.1168 91.1662 64.5295 90.9536 64.8806C90.7411 65.2318 90.4161 65.5009 90.0315 65.6443C89.6469 65.7877 89.2251 65.797 88.8345 65.6707C88.444 65.5443 88.1075 65.2898 87.8797 64.9484C87.7811 64.7474 87.6407 64.5698 87.468 64.4273C87.2482 64.3266 87.0048 64.2888 86.7648 64.318C86.0392 64.3095 85.3301 64.1009 84.7155 63.7151C84.1009 63.3294 83.6047 62.7816 83.2815 62.1319L84.0394 62.0117C82.673 61.5781 81.252 61.1117 80.2319 60.1024C79.2117 59.0932 78.7453 57.3734 79.5797 56.2075C79.944 55.7047 80.5488 55.2274 80.4213 54.6189C80.3375 54.1999 79.9294 53.9375 79.5542 53.7262L74.8831 51.0701C74.1253 50.6401 73.331 50.1738 72.9156 49.4086C72.5002 48.6435 72.6533 47.4994 73.4512 47.1569C73.2048 46.3106 72.7219 45.5521 72.0594 44.9708C71.3306 44.3222 70.3943 43.9251 69.6255 43.3129C68.8567 42.7008 68.23 41.728 68.4668 40.7624C68.7036 39.7969 70.1684 39.305 70.7076 40.1248C70.8351 38.6455 68.2628 38.0881 68.2992 36.6015C68.332 35.3955 69.9425 35.0603 70.8752 34.2988C70.7914 33.8616 70.4234 33.5263 70.325 33.0928C70.121 32.1855 71.1521 31.4969 72.0484 31.2528C72.9447 31.0086 74.0305 30.79 74.3912 29.9338C74.7519 29.0776 74.1617 27.8788 74.7957 27.1647C74.9787 26.9741 75.2266 26.859 75.4903 26.8422C75.754 26.8253 76.0145 26.9079 76.2203 27.0736C77.1858 25.5142 80.1153 27.3469 81.3213 25.9805C81.4228 25.8757 81.4857 25.7395 81.4998 25.5943C81.5018 25.4661 81.4677 25.3398 81.4014 25.23C81.1209 24.7016 80.5999 24.3555 80.2027 23.9146C79.8056 23.4738 79.5214 22.7997 79.8384 22.2896C80.1553 21.7795 81.1828 21.9872 81.0626 22.5702C81.2389 22.4776 81.4339 22.4264 81.633 22.4204C81.832 22.4144 82.0298 22.4538 82.2113 22.5356C82.3928 22.6175 82.5534 22.7395 82.6807 22.8926C82.8081 23.0457 82.8989 23.2257 82.9463 23.4191C83.4382 23.0038 84.2288 23.1531 84.7171 23.5758C85.172 24.0395 85.5115 24.6036 85.7081 25.2227" fill="#263238"/>
<path d="M90.5515 44.9198C90.4094 42.4239 88.9338 40.1832 87.1994 38.3796C86.4707 37.6217 85.6582 36.8967 84.6489 36.5578C83.6397 36.219 82.4264 36.4157 81.7669 37.2319L81.6394 38.9808C80.9908 41.6952 82.7506 44.3368 83.3591 47.0586C83.6251 48.2427 83.7745 49.6382 84.8165 50.2831C85.3757 50.6004 86.033 50.6979 86.6602 50.5564C89.1196 50.1264 90.6972 47.4193 90.5515 44.9198Z" fill="#455A64"/>
<path d="M88.8167 57.6649C89.7253 56.72 90.2737 55.4863 90.3662 54.1786C90.4588 52.871 90.0897 51.5724 89.3232 50.5089C90.5146 49.3794 90.4163 47.3645 89.5782 45.9618C88.7402 44.559 87.2974 43.619 85.9347 42.7299C85.6505 38.8933 81.8393 35.6869 78.0136 36.0586C76.4833 32.9506 72.439 31.9268 69.0104 32.415C68.1723 32.5353 67.327 32.7247 66.489 32.6045C65.8826 32.4719 65.2851 32.3016 64.7 32.0944C61.4208 31.1726 57.7591 33.0599 56.0138 35.993C55.7689 36.4811 55.4601 36.9345 55.0956 37.3411C54.5855 37.8403 53.8787 38.0698 53.2556 38.4342C52.5797 38.8219 51.9956 39.3511 51.5435 39.9857C51.0913 40.6202 50.7817 41.3451 50.6359 42.1105C50.3954 43.404 50.6141 44.8432 49.9072 45.9472C49.5428 46.501 48.9854 46.9091 48.6866 47.4957C47.8158 49.1936 49.5392 51.2996 48.9089 53.1031C48.7813 53.4675 48.5445 53.7991 48.4024 54.1561C48.0801 54.8941 48.0361 55.7238 48.2785 56.4917C48.4644 57.0783 48.8214 57.6394 48.7704 58.2551C48.6737 58.7118 48.5182 59.1539 48.3077 59.5705C47.9251 60.6453 49.7141 65.2508 50.5849 65.9904L79.1467 70.2789C80.2613 70.1892 81.3204 69.7554 82.1775 69.0373C83.0346 68.3193 83.6472 67.3526 83.9307 66.271C83.972 65.9001 84.1159 65.5481 84.3461 65.2544C84.5998 65.0646 84.8901 64.9294 85.1987 64.8573C87.1771 64.1285 87.7492 61.6327 87.8585 59.5267C87.8525 59.2294 87.8994 58.9333 87.9969 58.6523C88.2004 58.2709 88.4793 57.935 88.8167 57.6649Z" fill="#263238"/>
<path d="M80.6594 56.5572C81.4573 51.5073 79.1036 45.244 74.4252 42.0595C71.4776 40.0519 69.0073 39.6912 67.3677 39.2649C65.0606 38.7116 62.6399 38.873 60.4267 39.7276C58.798 39.8734 52.276 44.3477 51.1684 50.0462C49.9332 56.375 48.6799 64.1504 48.8147 69.0109C49.0879 78.7829 56.2694 80.9545 56.2694 80.9545L54.7391 87.5129L75.3762 89.9905L80.6594 56.5572Z" fill="#B56760"/>
<path d="M63.3121 69.4372C63.3278 68.942 63.1634 68.4578 62.8494 68.0745C62.5632 67.7192 62.1684 67.4676 61.7254 67.3584C61.2824 67.2491 60.8159 67.2882 60.3973 67.4697C59.9554 67.6954 59.5817 68.0349 59.3146 68.4531C59.0476 68.8713 58.8968 69.3531 58.8779 69.8489C59.0299 70.1765 59.2503 70.4676 59.5244 70.7026C59.7984 70.9377 60.1197 71.1113 60.4665 71.2116C60.5754 71.2429 60.6861 71.2672 60.7981 71.2845C61.3575 71.386 61.9347 71.2742 62.4158 70.9712C62.6718 70.8002 62.8855 70.5732 63.0408 70.3075C63.196 70.0417 63.2888 69.7441 63.3121 69.4372Z" fill="#8A4A43"/>
<path d="M53.6934 58.6122C53.6471 58.932 53.728 59.2573 53.9187 59.5182C54.1094 59.779 54.3948 59.9548 54.7136 60.0077C54.8683 60.0405 55.028 60.042 55.1833 60.012C55.3386 59.9821 55.4863 59.9213 55.6178 59.8334C55.7492 59.7454 55.8617 59.632 55.9486 59.4999C56.0354 59.3677 56.095 59.2195 56.1237 59.064C56.1689 58.7448 56.0876 58.4205 55.8969 58.1604C55.7063 57.9003 55.4215 57.7251 55.1035 57.6722C54.949 57.6393 54.7896 57.6377 54.6345 57.6675C54.4794 57.6972 54.3318 57.7576 54.2004 57.8452C54.069 57.9328 53.9565 58.0458 53.8694 58.1775C53.7824 58.3092 53.7225 58.457 53.6934 58.6122Z" fill="#263238"/>
<path d="M52.8405 53.9994C52.9716 54.178 53.9919 53.6096 55.3108 53.7845C56.6298 53.9594 57.497 54.75 57.6791 54.6043C57.7593 54.5423 57.6427 54.2399 57.2601 53.8756C56.7406 53.4044 56.0874 53.1064 55.391 53.023C54.7048 52.9279 54.0062 53.0556 53.398 53.3873C52.9498 53.646 52.7749 53.9156 52.8405 53.9994Z" fill="#263238"/>
<path d="M59.2125 65.4293C59.2125 65.3528 58.4255 65.1051 57.1175 64.7626C56.7823 64.6824 56.4726 64.5731 56.4471 64.3363C56.4656 63.9833 56.5929 63.6448 56.8114 63.3671L58.145 60.9259C60.0068 57.4499 61.4023 54.5715 61.2602 54.4987C61.1181 54.4258 59.4967 57.184 57.6349 60.6599L56.3414 63.1193C56.1629 63.4837 55.8896 63.8918 55.9953 64.4201C56.0282 64.5456 56.0893 64.662 56.1739 64.7605C56.2585 64.859 56.3644 64.9369 56.4835 64.9885C56.6645 65.0632 56.8543 65.1146 57.0483 65.1415C58.3672 65.4002 59.198 65.5131 59.2125 65.4293Z" fill="#263238"/>
<path d="M56.2657 80.9545C60.7644 81.61 65.3568 81.0046 69.5319 79.2056C69.5319 79.2056 65.3673 85.4325 55.9014 83.2828L56.2657 80.9545Z" fill="#8A4A43"/>
<path d="M62.9764 66.8576C62.7651 66.8176 62.5756 68.2531 61.2129 69.1094C59.8503 69.9656 58.3491 69.6122 58.2981 69.8126C58.2653 69.9 58.6005 70.1332 59.2454 70.2352C60.0836 70.3575 60.938 70.1794 61.6575 69.7324C62.3487 69.3026 62.8454 68.6204 63.042 67.8305C63.195 67.2511 63.0821 66.8649 62.9764 66.8576Z" fill="#263238"/>
<path d="M54.0174 49.1171C54.1996 49.4815 55.238 49.3831 56.4076 49.6381C57.5772 49.8932 58.5172 50.3268 58.8124 50.0717C58.9472 49.9442 58.8597 49.6126 58.4917 49.2337C57.98 48.7643 57.3493 48.4444 56.6682 48.3088C55.9872 48.1733 55.282 48.2273 54.6295 48.4649C54.1486 48.669 53.9409 48.9495 54.0174 49.1171Z" fill="#263238"/>
<path d="M67.8667 60.8312C67.8154 61.1496 67.6422 61.4357 67.3838 61.6288C67.1254 61.8219 66.8021 61.9069 66.4821 61.8659C66.3231 61.8546 66.1679 61.8113 66.026 61.7386C65.8841 61.6659 65.7584 61.5653 65.6563 61.4428C65.5542 61.3203 65.4779 61.1785 65.432 61.0258C65.3861 60.8731 65.3715 60.7127 65.389 60.5542C65.4404 60.2358 65.6135 59.9497 65.8719 59.7566C66.1303 59.5635 66.4536 59.4785 66.7736 59.5195C66.9326 59.5308 67.0878 59.5741 67.2297 59.6468C67.3716 59.7195 67.4973 59.8201 67.5994 59.9426C67.7015 60.0651 67.7778 60.2069 67.8237 60.3596C67.8696 60.5123 67.8842 60.6727 67.8667 60.8312Z" fill="#263238"/>
<path d="M70.8507 56.8706C70.6722 57.0054 69.8633 56.1637 68.548 55.9451C67.2327 55.7265 66.1578 56.222 66.0449 56.0362C65.9866 55.956 66.1906 55.6937 66.6606 55.4569C67.2956 55.1593 68.0069 55.0651 68.6974 55.1873C69.3813 55.3013 70.0114 55.6291 70.4973 56.1236C70.8471 56.4989 70.9382 56.8123 70.8507 56.8706Z" fill="#263238"/>
<path d="M71.8013 52.4911C71.4916 52.7425 70.5297 52.2652 69.3127 52.0429C68.0958 51.8207 67.0282 51.8644 66.8424 51.5146C66.7659 51.3434 66.9772 51.0738 67.4764 50.8661C68.1536 50.6259 68.883 50.5723 69.5881 50.7107C70.2932 50.8492 70.9481 51.1747 71.4843 51.6531C71.8487 52.032 71.9397 52.3636 71.8013 52.4911Z" fill="#263238"/>
<path d="M77.8938 65.4293C77.9885 64.7006 79.0305 63.1411 79.7483 63.1229C81.6685 63.0755 85.0388 63.6658 84.4485 68.4461C83.6396 74.979 77.2488 72.8184 77.2598 72.6326C77.2707 72.4468 77.5513 67.8814 77.8938 65.4293Z" fill="#B56760"/>
<path d="M79.3725 70.4611C79.4017 70.4611 79.4745 70.5558 79.6567 70.6688C79.9131 70.8182 80.2178 70.8613 80.5056 70.789C81.2344 70.6214 81.9412 69.5976 82.1198 68.4244C82.2064 67.8664 82.1666 67.2961 82.0032 66.7556C81.9669 66.5436 81.8796 66.3437 81.7489 66.1729C81.6181 66.0022 81.4478 65.8658 81.2526 65.7755C81.1265 65.7248 80.9867 65.72 80.8575 65.762C80.7283 65.8039 80.6179 65.89 80.5457 66.005C80.4328 66.1763 80.4583 66.3111 80.4219 66.3184C80.3854 66.3257 80.298 66.1945 80.3818 65.9285C80.4411 65.7757 80.5502 65.6473 80.6915 65.5642C80.8872 65.4494 81.1203 65.4167 81.34 65.4731C81.6017 65.5601 81.8369 65.7125 82.0231 65.9159C82.2093 66.1194 82.3404 66.367 82.4039 66.6354C82.6123 67.2352 82.671 67.8768 82.5752 68.5045C82.3712 69.8162 81.5441 70.9639 80.5639 71.1206C80.3821 71.1491 80.1962 71.1368 80.0197 71.0845C79.8433 71.0322 79.6807 70.9412 79.5438 70.8182C79.347 70.6214 79.3324 70.472 79.3725 70.4611Z" fill="#8A4A43"/>
<path d="M49.6602 49.9406C51.0884 49.2884 52.0758 48.2755 52.2106 46.7124C53.0523 47.0767 54.0871 46.0784 54.6956 45.3861C55.304 44.6939 55.9781 44.3987 56.0582 43.4806C56.0591 43.2984 56.1054 43.1193 56.1931 42.9595C56.3987 42.7576 56.6737 42.6416 56.9618 42.6353C57.6877 42.5026 58.3685 42.1894 58.9415 41.7246C59.5146 41.2598 59.9615 40.6583 60.241 39.9755C61.5666 40.7713 63.0689 41.2258 64.6133 41.2981C64.889 41.8346 65.2961 42.2924 65.7968 42.6288C66.2975 42.9652 66.8753 43.1692 67.4762 43.2216C68.0771 43.274 68.6815 43.1732 69.2328 42.9285C69.7842 42.6839 70.2645 42.3034 70.6288 41.8227C70.7978 42.2488 71.0564 42.6336 71.387 42.9511C71.7177 43.2686 72.1127 43.5112 72.5453 43.6627C73.4124 43.9604 74.3183 44.1297 75.2343 44.1655C74.9496 45.0284 74.986 45.9649 75.3368 46.803C75.6876 47.6412 76.3291 48.3245 77.1435 48.7273C77.3658 48.8257 77.6245 48.935 77.701 49.1645C77.7775 49.394 77.6281 49.6564 77.5079 49.8932C77.3352 50.2524 77.2366 50.6427 77.2177 51.0408C77.1989 51.4389 77.2604 51.8367 77.3984 52.2106C77.5364 52.5845 77.7481 52.9268 78.0211 53.2172C78.294 53.5076 78.6225 53.7402 78.9871 53.9011C77.8139 54.5898 77.6718 56.5172 78.7357 57.3698C78.9544 57.541 79.2422 57.756 79.1693 58.0256C79.1328 58.1256 79.0713 58.2147 78.9908 58.2843C78.4188 58.8673 77.8431 59.5086 77.6791 60.3065C77.5152 61.1044 77.9414 62.0809 78.743 62.223C78.4927 62.362 78.2734 62.5507 78.0986 62.7776C77.9238 63.0044 77.7972 63.2645 77.7265 63.542C77.6427 64.1104 78.1418 64.7626 78.6957 64.635C78.9325 64.5767 82.2663 64.3618 82.4339 64.1869C84.6201 61.9242 82.6489 58.8491 82.8748 55.7156C83.0353 52.5591 82.4603 49.4084 81.1951 46.512C80.7148 45.2829 80.0741 44.1227 79.2896 43.0615C78.3298 41.9051 77.2419 40.8612 76.0468 39.9499C74.5311 38.7075 72.9716 37.4614 71.1389 36.7691C67.714 35.4757 63.8955 36.2809 60.4269 37.374C59.0868 37.7415 57.8024 38.2881 56.6084 38.999C55.2437 39.952 54.0593 41.14 53.1106 42.5077C51.675 44.4315 50.4144 46.5448 49.8751 48.8803" fill="#263238"/>
<path d="M48.6797 47.4885C48.7946 47.2516 48.9472 47.0351 49.1315 46.8472C49.2955 46.6504 49.525 46.4245 49.7545 46.1185C50.0097 45.7699 50.1885 45.3713 50.2792 44.9489C50.3877 44.416 50.4499 43.8748 50.465 43.3312C50.4798 42.6766 50.5828 42.0271 50.7711 41.4001C51.0106 40.6822 51.395 40.0212 51.9006 39.4581C52.1769 39.1505 52.4874 38.8754 52.8261 38.6383C53.1868 38.3989 53.5656 38.1882 53.9592 38.0079C54.3612 37.8268 54.7305 37.5806 55.0523 37.2792C55.3613 36.9338 55.6235 36.5491 55.832 36.1351C56.8826 34.3087 58.5506 32.9171 60.5358 32.211C61.0703 32.0225 61.6238 31.893 62.1864 31.8248C62.7661 31.7666 63.3508 31.7776 63.928 31.8576C64.2203 31.9047 64.5098 31.9679 64.7951 32.0471C65.083 32.1309 65.3635 32.2292 65.6441 32.3167C66.2014 32.5176 66.7952 32.5971 67.3857 32.5499C67.9869 32.5134 68.5881 32.3786 69.2075 32.3094C69.8344 32.2284 70.4669 32.2003 71.0985 32.2256C71.7429 32.2503 72.384 32.3296 73.015 32.4624C73.6564 32.6021 74.2825 32.8047 74.8841 33.0673C76.1297 33.6003 77.177 34.51 77.8791 35.6688L78.0796 36.0331L77.9812 35.9785C79.9272 35.8728 81.8402 36.5137 83.3299 37.7704C84.8195 39.0271 85.7734 40.8049 85.997 42.7409L85.9533 42.668C86.7045 43.1213 87.4273 43.6202 88.1175 44.1619C88.7794 44.6943 89.3377 45.3439 89.7644 46.0784C90.1553 46.8031 90.3417 47.6205 90.3037 48.4431C90.2834 49.2424 89.9559 50.0032 89.3891 50.5673V50.458C90.1469 51.4802 90.521 52.7365 90.4458 54.0068C90.4119 55.1454 90.0305 56.2465 89.3527 57.1621C89.1948 57.37 89.0218 57.566 88.8353 57.7487C88.6503 57.9144 88.4739 58.0895 88.307 58.2734C88.1544 58.4481 88.0458 58.6567 87.99 58.8819C87.947 59.1053 87.9238 59.3321 87.9208 59.5596C87.8842 60.3958 87.7497 61.2249 87.52 62.0299C87.3419 62.6814 87.0401 63.2924 86.631 63.8298C86.3221 64.2219 85.9268 64.5373 85.476 64.7516C85.1116 64.9302 84.7983 64.9775 84.6161 65.0759C84.5232 65.1213 84.4353 65.1762 84.3538 65.2399C84.4244 65.1618 84.5098 65.0986 84.6052 65.054C84.7873 64.9447 85.097 64.8901 85.4541 64.7079C85.8925 64.4886 86.2751 64.172 86.5727 63.7824C86.9698 63.2485 87.2617 62.6439 87.4326 62.0007C87.6461 61.2022 87.7683 60.382 87.7969 59.5559C87.799 59.3199 87.8222 59.0846 87.8661 58.8527C87.9237 58.6086 88.0401 58.3822 88.205 58.1932C88.3721 58.0048 88.5497 57.826 88.737 57.6576C88.9188 57.4774 89.0869 57.2837 89.2398 57.0783C89.8996 56.1857 90.2709 55.1127 90.3037 54.0031C90.3708 52.7693 90.0034 51.5509 89.2653 50.56L89.2106 50.4907L89.2616 50.4397C89.7962 49.9048 90.1042 49.1845 90.1215 48.4285C90.1492 47.6385 89.9602 46.8561 89.575 46.1658C89.1622 45.4502 88.6212 44.8166 87.9791 44.2967C87.3079 43.755 86.6033 43.2561 85.8695 42.8028L85.8294 42.7773V42.73C85.6112 40.8428 84.6801 39.1103 83.2266 37.8871C81.7731 36.6639 79.907 36.0423 78.0103 36.1497H77.9484L77.9119 36.0878C77.85 35.9748 77.7844 35.8619 77.7188 35.7489C77.0352 34.6231 76.0158 33.74 74.804 33.2239C74.2168 32.9691 73.6068 32.7702 72.9822 32.63C71.7508 32.3714 70.485 32.3197 69.2366 32.477C68.6245 32.5462 68.0197 32.681 67.4149 32.7175C67.1063 32.7417 66.7961 32.7332 66.4894 32.692C66.1875 32.6437 65.8902 32.5705 65.6004 32.4734C65.3162 32.3823 65.0393 32.2839 64.7587 32.2001C64.4802 32.1251 64.1981 32.0643 63.9134 32.0179C63.3523 31.9367 62.7833 31.9244 62.2191 31.9815C61.6707 32.0442 61.1307 32.1664 60.6087 32.3458C58.6577 33.0313 57.0163 34.3922 55.9814 36.1825C55.761 36.6144 55.4841 37.0151 55.1579 37.3739C54.8176 37.6759 54.4314 37.9219 54.0139 38.1026C53.6249 38.2758 53.2508 38.4806 52.8953 38.7148C52.5638 38.9444 52.2594 39.2108 51.988 39.5091C51.4888 40.0569 51.108 40.7019 50.8695 41.4037C50.6782 42.0204 50.5716 42.6602 50.5525 43.3056C50.5311 43.8534 50.4629 44.3983 50.3484 44.9343C50.249 45.3646 50.0603 45.7693 49.7946 46.1221C49.5578 46.4245 49.3246 46.6468 49.1534 46.8508C49.0191 46.9933 48.8972 47.1469 48.789 47.3099C48.7125 47.4302 48.6833 47.4921 48.6797 47.4885Z" fill="#455A64"/>
<path d="M75.1245 34.2186C75.1245 34.2186 74.9678 34.0984 74.669 33.898C74.2509 33.6216 73.7889 33.4183 73.3027 33.2968C72.5847 33.1104 71.83 33.1192 71.1165 33.3223C70.2469 33.5818 69.4817 34.1098 68.9304 34.8307C68.7633 35.0457 68.6215 35.2792 68.5078 35.5266C68.4493 35.6315 68.4151 35.748 68.4075 35.8678C68.4 35.9876 68.4193 36.1076 68.464 36.2189L68.5916 36.463L68.3402 36.3537C67.6864 36.0768 66.9502 36.0664 66.2888 36.3246C65.765 36.53 65.3206 36.8977 65.0209 37.3739C64.822 37.6921 64.6871 38.0461 64.6237 38.416C64.58 38.6747 64.58 38.8204 64.5654 38.8204C64.5588 38.7855 64.5588 38.7497 64.5654 38.7147C64.555 38.6118 64.555 38.508 64.5654 38.405C64.6057 38.0185 64.73 37.6454 64.9298 37.312C65.2277 36.7937 65.689 36.3888 66.2415 36.1606C66.9415 35.8715 67.7276 35.8715 68.4276 36.1606L68.3037 36.2954C68.2439 36.1589 68.2158 36.0106 68.2215 35.8617C68.2272 35.7128 68.2665 35.5671 68.3365 35.4355C68.4563 35.1764 68.6054 34.9319 68.781 34.7068C69.358 33.9523 70.163 33.4041 71.0765 33.1437C71.8199 32.9346 72.6066 32.9346 73.35 33.1437C73.8462 33.2819 74.3121 33.5118 74.7237 33.8215C74.8365 33.9039 74.9425 33.9952 75.0407 34.0947C75.099 34.1749 75.1317 34.215 75.1245 34.2186Z" fill="#455A64"/>
<path d="M84.7178 43.1198C84.6401 43.1986 84.5518 43.266 84.4554 43.3202C84.2032 43.4881 83.9332 43.6274 83.6502 43.7356C83.2211 43.9065 82.7596 43.9812 82.2984 43.9542C81.7098 43.9211 81.1548 43.669 80.7427 43.2474H80.8884L80.6625 43.4915C80.5823 43.568 80.4912 43.6409 80.4074 43.7174C79.8941 44.1236 79.2883 44.3964 78.644 44.5117C78.1219 44.6147 77.5847 44.6147 77.0627 44.5117C76.7149 44.44 76.3797 44.3172 76.068 44.1473C75.9521 44.0874 75.8454 44.0114 75.751 43.9214C76.1762 44.1287 76.6253 44.2829 77.0882 44.3805C77.5922 44.4629 78.107 44.453 78.6075 44.3514C79.2194 44.2299 79.7937 43.9652 80.2836 43.5789C80.3674 43.5061 80.4512 43.4368 80.5277 43.364L80.7427 43.1344L80.8192 43.0543L80.892 43.1344C81.2701 43.5218 81.7768 43.7577 82.3167 43.7975C82.7548 43.8322 83.1953 43.7751 83.6101 43.6299C84.317 43.364 84.6996 43.0871 84.7178 43.1198Z" fill="#455A64"/>
<path d="M87.3599 49.6272C87.3599 49.6272 87.3599 49.671 87.3271 49.7475C87.2809 49.8549 87.2182 49.9545 87.1413 50.0426C86.8425 50.3648 86.4349 50.5648 85.9972 50.6037C85.3595 50.6277 84.728 50.4711 84.1754 50.1519C83.841 49.9875 83.5151 49.8063 83.1989 49.609C82.8277 49.3999 82.5415 49.0673 82.3901 48.669L82.3646 48.556L82.514 48.6253C81.8663 49.0301 81.1612 49.3348 80.4226 49.5289C79.8103 49.6856 79.1663 49.6667 78.5643 49.4742C78.1594 49.3488 77.794 49.1203 77.5041 48.8111C77.4246 48.7291 77.356 48.6373 77.3 48.5378C77.2762 48.505 77.2589 48.4679 77.249 48.4285C77.249 48.4285 77.351 48.5597 77.5587 48.7564C77.8552 49.033 78.2139 49.2342 78.6044 49.343C79.1864 49.5027 79.8005 49.5027 80.3825 49.343C81.0991 49.145 81.7829 48.843 82.4119 48.4467L82.5285 48.3775L82.5613 48.5123L82.5832 48.607C82.717 48.9586 82.968 49.2533 83.2937 49.4414C83.6034 49.6455 83.9349 49.8058 84.241 49.9807C84.7665 50.2967 85.3694 50.4607 85.9826 50.4543C86.3906 50.4299 86.7773 50.2637 87.0757 49.9843C87.1806 49.8737 87.2757 49.7543 87.3599 49.6272Z" fill="#455A64"/>
<path d="M97.4442 27.2558C97.4442 27.2558 97.3313 27.2558 97.1273 27.2558C96.8338 27.2975 96.559 27.4241 96.3366 27.6201C95.9912 27.93 95.7602 28.3471 95.6808 28.8043C95.5885 29.408 95.5885 30.0223 95.6808 30.6261V30.7354L95.5714 30.7171C94.7677 30.5873 93.9436 30.7243 93.225 31.107C92.8204 31.3156 92.4702 31.616 92.2025 31.9842C91.9349 32.3525 91.7572 32.7783 91.6838 33.2276C91.6077 33.641 91.6293 34.0666 91.747 34.4702C91.8647 34.8738 92.0751 35.2443 92.3615 35.5521L92.5582 35.7525L92.2813 35.7161C91.816 35.6541 91.3428 35.6894 90.8919 35.8198C90.4409 35.9503 90.0219 36.1731 89.6616 36.474C89.0902 36.9595 88.7041 37.6275 88.5685 38.365C88.4769 38.8475 88.4868 39.3439 88.5977 39.8224C88.6778 40.1612 88.758 40.3325 88.7434 40.3398C88.7142 40.3022 88.6909 40.2605 88.6742 40.2159C88.6173 40.0988 88.571 39.9769 88.5357 39.8515C88.3937 39.3617 88.3638 38.8461 88.4483 38.3431C88.5744 37.5608 88.9732 36.8483 89.5742 36.3319C89.95 36.0106 90.3889 35.7716 90.8627 35.6304C91.3365 35.4892 91.8347 35.4489 92.325 35.5121L92.2449 35.6724C91.9402 35.346 91.7158 34.9532 91.5893 34.5251C91.4628 34.0969 91.4378 33.6452 91.5162 33.2057C91.5909 32.7144 91.7876 32.2496 92.0882 31.8539C92.3784 31.4799 92.7448 31.1719 93.1631 30.9503C93.92 30.5526 94.7874 30.4168 95.6297 30.5641L95.5314 30.6552C95.4459 30.0381 95.4545 29.4115 95.5569 28.797C95.6517 28.3162 95.909 27.8826 96.2856 27.5691C96.5234 27.3616 96.8204 27.2342 97.1345 27.2048C97.2145 27.1959 97.2951 27.1959 97.375 27.2048C97.401 27.2175 97.4244 27.2347 97.4442 27.2558Z" fill="#455A64"/>
<path d="M107.214 42.9413C107.214 42.9413 107.177 42.9631 107.097 42.9923C107.017 43.0214 106.908 43.0615 106.751 43.098C106.309 43.2039 105.853 43.2457 105.399 43.2218C104.698 43.1871 104.012 43.0111 103.381 42.7044C102.567 42.318 101.874 41.7187 101.373 40.9701H101.522C101.142 41.4617 100.657 41.8625 100.102 42.1436C99.5477 42.4246 98.9376 42.5789 98.3162 42.5951C97.6498 42.5968 96.9998 42.3891 96.4579 42.0014C95.9159 41.6137 95.5094 41.0656 95.2957 40.4345H95.4669C95.2497 40.8458 94.928 41.1926 94.5341 41.4401C94.1806 41.661 93.7908 41.8177 93.3828 41.9029C92.7161 42.0272 92.0305 42.0086 91.3715 41.8482C90.9446 41.7559 90.5246 41.6341 90.1145 41.4839C89.9665 41.4363 89.8227 41.3766 89.6846 41.3053C89.837 41.3345 89.9869 41.376 90.1327 41.4292C90.5481 41.5576 90.9702 41.6634 91.397 41.7462C92.0425 41.8788 92.7082 41.8788 93.3536 41.7462C93.7611 41.6686 94.1469 41.5032 94.4841 41.2616C94.8214 41.02 95.102 40.708 95.3066 40.3471L95.4122 40.1357L95.4778 40.3616C95.6779 40.9567 96.06 41.4738 96.5699 41.8399C97.0799 42.2061 97.692 42.4027 98.3198 42.402C98.9115 42.3868 99.4926 42.2407 100.021 41.9742C100.55 41.7078 101.013 41.3275 101.377 40.8608L101.457 40.7624L101.526 40.8681C102.005 41.5945 102.669 42.1795 103.45 42.5623C104.06 42.8702 104.725 43.0558 105.407 43.1089C106.014 43.1438 106.623 43.0873 107.214 42.9413Z" fill="#455A64"/>
<path d="M99.1026 51.5839C99.1026 51.5839 99.1026 51.6349 99.0115 51.6932C98.8954 51.7711 98.7578 51.8107 98.618 51.8061C98.1196 51.7821 97.635 51.6343 97.208 51.3762C96.5586 51.0067 96.0422 50.4419 95.7323 49.7621C95.3555 48.9237 95.3074 47.9744 95.5975 47.1023L95.725 47.2298C94.8597 47.5122 93.9269 47.5122 93.0616 47.2298C92.3626 47.0076 91.7243 46.6274 91.1961 46.1185C90.8418 45.779 90.5354 45.3929 90.2852 44.9708C90.1873 44.8203 90.1101 44.6573 90.0557 44.4862C90.4021 45.0457 90.817 45.5598 91.2908 46.0165C91.8122 46.497 92.4347 46.8544 93.1126 47.0622C93.9444 47.3212 94.8366 47.3122 95.6631 47.0367L95.8489 46.9711L95.7906 47.1642C95.5365 47.9132 95.5464 48.7265 95.8189 49.469C96.0914 50.2115 96.6099 50.8382 97.2881 51.245C97.6927 51.5011 98.1497 51.663 98.6253 51.7187C98.7957 51.7353 98.9661 51.6872 99.1026 51.5839Z" fill="#455A64"/>
<path d="M83.1511 25.6016C82.8451 26.2162 82.6549 26.882 82.59 27.5655C82.5105 28.6508 82.8264 29.7283 83.4794 30.5989C84.1323 31.4696 85.0783 32.0745 86.1425 32.3021L86.2627 32.3276L86.2117 32.4369C85.9103 33.0895 85.7336 33.7926 85.6907 34.5101C85.6587 35.0829 85.7103 35.6573 85.8437 36.2153C85.8925 36.4259 85.9558 36.6328 86.0332 36.8347C86.0571 36.9069 86.0976 36.9724 86.1513 37.0262C86.2051 37.08 86.2707 37.1205 86.3429 37.1444C86.3888 37.1575 86.4371 37.1603 86.4843 37.1528C86.5315 37.1452 86.5765 37.1274 86.6161 37.1007C86.6671 37.0606 86.6817 37.0242 86.689 37.0278C86.6963 37.0314 86.689 37.0715 86.638 37.1262C86.5975 37.1638 86.5485 37.1911 86.4953 37.2057C86.442 37.2203 86.3859 37.2217 86.3319 37.21C86.2457 37.1896 86.1657 37.1489 86.0985 37.0912C86.0313 37.0335 85.9789 36.9605 85.9457 36.8784C85.8534 36.6752 85.7791 36.4643 85.7235 36.2481C85.568 35.6799 85.5005 35.0914 85.5231 34.5028C85.5551 33.7604 85.7282 33.0308 86.0332 32.3531L86.1024 32.4916C85.5705 32.3871 85.0611 32.1898 84.5976 31.9086C83.8632 31.4642 83.2708 30.8196 82.89 30.0502C82.5092 29.2809 82.3558 28.4189 82.4479 27.5655C82.5005 27.0601 82.6385 26.5673 82.856 26.1081C82.9178 25.9833 82.9859 25.8616 83.06 25.7437C83.1147 25.638 83.1438 25.598 83.1511 25.6016Z" fill="#455A64"/>
<path d="M73.7694 86.9263L81.2897 89.5205C81.2897 89.5205 71.9185 97.999 65.0431 97.9007C58.1677 97.8023 48.6216 94.5923 47.1022 92.4098C45.5829 90.2273 45.6922 89.4549 45.6922 89.4549L55.2091 86.9044L73.7694 86.9263Z" fill="#B56760"/>
<path d="M107.177 118.935C107.177 118.935 99.5657 96.4797 96.3849 93.2843C93.47 90.3695 78.5497 88.6752 78.5497 88.6752C78.5497 88.6752 71.503 97.1793 59.7963 94.3446C48.0895 91.5099 46.9928 88.6752 46.9928 88.6752L36.2516 91.6812C32.5586 92.7105 29.3193 94.9526 27.0553 98.0465C21.8887 105.1 13.8438 116.716 13.8438 116.716L29.0009 127.253L35.2278 119.602L38.7693 136.697L40.3288 151.297C40.3288 151.297 60.7108 153.17 66.198 152.638C71.6852 152.106 89.903 149.453 91.5645 148.921L92.3588 120.698L107.177 118.935Z" fill="#455A64"/>
<path d="M98.6038 115.51C98.4596 115.221 98.2575 114.964 98.0099 114.756C97.6293 114.492 97.1938 114.318 96.7361 114.247C96.2785 114.177 95.8107 114.211 95.3683 114.348C94.7191 114.508 94.1251 114.84 93.6485 115.31C93.0789 115.867 92.583 116.495 92.1729 117.179C91.7029 117.907 91.2547 118.705 90.639 119.478C89.9981 120.307 89.1407 120.944 88.1614 121.318C87.6234 121.51 87.0415 121.543 86.4853 121.413C85.9076 121.264 85.3826 120.958 84.9696 120.527C84.117 119.667 83.5923 118.523 82.9547 117.434C82.6475 116.87 82.2664 116.349 81.8216 115.885C81.3644 115.416 80.7455 115.138 80.0909 115.109C79.4134 115.114 78.7627 115.374 78.2691 115.838C77.7486 116.3 77.3527 116.885 77.1177 117.539C76.6222 118.877 76.6732 120.367 76.4692 121.861C76.3731 122.631 76.1014 123.369 75.6749 124.018C75.4441 124.346 75.1347 124.612 74.7749 124.79C74.406 124.964 73.9945 125.026 73.5908 124.969C73.1894 124.904 72.8123 124.734 72.4977 124.477C72.182 124.223 71.9089 123.921 71.6888 123.58C71.2384 122.9 70.939 122.131 70.8107 121.325C70.6905 120.524 70.6395 119.715 70.5047 118.913C70.4107 118.109 70.134 117.338 69.6958 116.658C69.4626 116.332 69.168 116.055 68.8286 115.842C68.4858 115.639 68.1051 115.509 67.7101 115.459C66.9177 115.371 66.1167 115.51 65.4001 115.86C64.6842 116.192 64.0517 116.68 63.5491 117.288C63.0588 117.895 62.6394 118.557 62.2994 119.259C61.6035 120.644 61.1116 122.108 60.3319 123.409C59.9568 124.057 59.4987 124.654 58.9692 125.184C58.455 125.711 57.8338 126.122 57.1474 126.39C56.4658 126.638 55.7322 126.708 55.0159 126.594C54.3246 126.473 53.6651 126.212 53.0776 125.829C51.9707 125.086 51.0363 124.114 50.3376 122.979C49.7123 121.916 49.1549 120.815 48.6688 119.682C48.215 118.646 47.6751 117.65 47.0548 116.705C46.7554 116.274 46.4215 115.868 46.0564 115.492C45.7045 115.14 45.3147 114.829 44.8941 114.563C44.1149 114.084 43.2477 113.765 42.3436 113.626C41.5573 113.509 40.758 113.509 39.9717 113.626C39.3093 113.729 38.6628 113.917 38.0479 114.184C37.1938 114.55 36.4265 115.093 35.7962 115.776C35.7379 115.831 35.6869 115.885 35.6395 115.936L35.5193 116.089L35.3334 116.33C35.2314 116.461 35.1768 116.523 35.1768 116.523C35.1768 116.523 35.2205 116.454 35.3152 116.319L35.4974 116.071L35.614 115.914C35.6613 115.863 35.7124 115.805 35.767 115.75C36.3912 115.05 37.1592 114.492 38.0187 114.115C38.6381 113.841 39.2893 113.646 39.9571 113.535C40.753 113.408 41.5632 113.398 42.3619 113.506C43.2811 113.641 44.1635 113.961 44.9561 114.446C45.3863 114.714 45.7847 115.029 46.1439 115.386C46.5183 115.766 46.8596 116.176 47.1641 116.614C47.7818 117.565 48.3181 118.567 48.7672 119.609C49.2548 120.736 49.8121 121.831 50.436 122.888C51.1256 124.001 52.0448 124.954 53.1322 125.683C53.7034 126.05 54.3429 126.298 55.0123 126.412C55.6993 126.521 56.4028 126.453 57.0563 126.215C58.3862 125.719 59.4101 124.568 60.1643 123.3C60.9185 122.032 61.4176 120.556 62.1209 119.157C62.4654 118.441 62.8921 117.767 63.3925 117.15C63.9104 116.519 64.5643 116.013 65.3053 115.67C66.0551 115.306 66.8924 115.161 67.721 115.251C68.1418 115.305 68.5473 115.444 68.9124 115.659C69.2731 115.886 69.5862 116.18 69.8343 116.527C70.2908 117.231 70.5788 118.032 70.6759 118.866C70.8107 119.678 70.8654 120.487 70.9856 121.278C71.1051 122.059 71.3936 122.805 71.8309 123.464C72.0201 123.795 72.2763 124.082 72.5831 124.308C72.8899 124.534 73.2406 124.693 73.6126 124.776C73.9852 124.829 74.3652 124.772 74.7057 124.612C75.0397 124.443 75.3255 124.192 75.5364 123.883C75.9441 123.258 76.2056 122.549 76.3016 121.81C76.5056 120.352 76.451 118.829 76.9647 117.437C77.2094 116.755 77.6231 116.146 78.1671 115.667C78.6987 115.192 79.3893 114.935 80.1018 114.945C80.7914 114.979 81.4423 115.274 81.9236 115.769C82.3774 116.243 82.7659 116.776 83.0786 117.354C83.7199 118.447 84.2372 119.591 85.0643 120.425C85.4599 120.84 85.9653 121.135 86.5218 121.274C87.0521 121.395 87.6061 121.361 88.1176 121.176C89.075 120.813 89.9144 120.194 90.5442 119.387C91.1527 118.633 91.6082 117.824 92.0818 117.106C92.5017 116.419 93.0073 115.788 93.5866 115.229C94.0769 114.754 94.686 114.419 95.3501 114.26C95.8025 114.125 96.2797 114.096 96.7452 114.174C97.2107 114.253 97.652 114.437 98.0354 114.712C98.2219 114.87 98.3787 115.06 98.4981 115.273C98.571 115.433 98.6038 115.51 98.6038 115.51Z" fill="white"/>
<path d="M38.3495 135.75C38.3161 135.65 38.2917 135.548 38.2767 135.444C38.2329 135.222 38.1746 134.927 38.1054 134.555C37.9524 133.764 37.7411 132.653 37.4824 131.276C36.954 128.518 36.1816 124.717 35.3217 120.509C34.4619 116.301 33.7149 112.493 33.2158 109.728C32.968 108.347 32.7749 107.225 32.6546 106.448C32.5963 106.084 32.5526 105.774 32.5198 105.552C32.4994 105.449 32.4873 105.344 32.4834 105.239C32.5168 105.338 32.5412 105.441 32.5563 105.545C32.6 105.767 32.6546 106.062 32.7275 106.434C32.8769 107.225 33.0919 108.336 33.3506 109.713C33.8789 112.471 34.6513 116.272 35.5076 120.48C36.3638 124.688 37.118 128.496 37.6135 131.261C37.8649 132.642 38.0544 133.764 38.1783 134.54C38.2329 134.905 38.2803 135.214 38.3131 135.437C38.3311 135.54 38.3433 135.645 38.3495 135.75Z" fill="#263238"/>
<path d="M84.2632 71.7684C86.1723 70.0603 86.3352 67.128 84.6271 65.219C82.919 63.31 79.9868 63.147 78.0777 64.8551C76.1687 66.5632 76.0058 69.4955 77.7138 71.4045C79.4219 73.3135 82.3542 73.4764 84.2632 71.7684Z" fill="#FF7A3E"/>
<path d="M86.6166 54.6298L86.2522 54.5861C86.2522 54.4877 87.3781 44.4497 82.1751 37.8913C79.6574 34.7178 76.0649 32.8486 71.4922 32.3385L71.5323 31.9742C76.2033 32.4989 79.8797 34.4154 82.4629 37.6654C87.7534 44.3441 86.6275 54.5278 86.6166 54.6298Z" fill="#E0E0E0"/>
<path d="M81.3219 70.6943C82.6561 70.6943 83.7376 69.6127 83.7376 68.2786C83.7376 66.9445 82.6561 65.8629 81.3219 65.8629C79.9878 65.8629 78.9062 66.9445 78.9062 68.2786C78.9062 69.6127 79.9878 70.6943 81.3219 70.6943Z" fill="#455A64"/>
<path d="M83.6979 68.7085C83.6797 68.7085 83.727 68.4935 83.6979 68.1146C83.6485 67.5831 83.4257 67.0825 83.0639 66.69C82.7991 66.4015 82.4665 66.1837 82.0961 66.0564C81.7258 65.9292 81.3295 65.8965 80.9434 65.9613C80.4892 66.0367 80.068 66.246 79.7337 66.5625C79.3745 66.9011 79.1322 67.3451 79.0418 67.8304C78.9514 68.3157 79.0176 68.8171 79.2309 69.2623C79.4273 69.6791 79.7447 70.027 80.1418 70.2607C80.4777 70.4607 80.8582 70.5739 81.2488 70.5898C81.6394 70.6057 82.0279 70.5239 82.3789 70.3518C82.8545 70.1188 83.239 69.7342 83.472 69.2587C83.6359 68.9162 83.6687 68.7012 83.687 68.7085C83.7052 68.7158 83.687 68.7595 83.687 68.8615C83.6579 69.0077 83.6139 69.1506 83.5558 69.2878C83.3342 69.8015 82.9415 70.2226 82.4445 70.4793C81.9089 70.7529 81.2925 70.8237 80.7088 70.6785C80.1252 70.5333 79.6138 70.1819 79.2689 69.6892C78.924 69.1965 78.7689 68.5957 78.8322 67.9976C78.8955 67.3995 79.173 66.8445 79.6135 66.4349C79.9733 66.0946 80.4283 65.8722 80.9178 65.7973C81.3298 65.7305 81.7519 65.7689 82.1449 65.9091C82.538 66.0492 82.8892 66.2865 83.1659 66.5989C83.5373 67.0175 83.7523 67.5518 83.7744 68.111C83.7819 68.2599 83.7709 68.4092 83.7416 68.5555C83.7368 68.6088 83.722 68.6607 83.6979 68.7085Z" fill="#263238"/>
<path d="M77.0486 69.379C76.9413 69.1441 76.8819 68.8901 76.8737 68.632C76.8232 68.0094 76.9066 67.3832 77.1184 66.7956C77.3302 66.2079 77.6655 65.6725 78.1016 65.2253C78.2716 65.0321 78.4785 64.8748 78.7101 64.7626C78.7283 64.7881 78.5024 64.9703 78.2 65.3164C77.4066 66.2335 76.982 67.4124 77.0085 68.6247C77.0195 69.0729 77.0814 69.3717 77.0486 69.379Z" fill="white"/>
<path d="M80.9863 67.6555C80.9863 67.6555 81.1539 67.4187 81.4126 67.0179C82.0903 65.9904 83.2053 63.4217 83.8538 61.5526C84.7538 58.9729 85.5881 53.6898 85.5881 53.6898L87.3152 54.0104C87.3152 54.0104 85.191 64.8318 82.1049 68.4134L80.9863 67.6555Z" fill="#455A64"/>
<path d="M62.2006 97.387C62.2006 97.387 62.2006 97.4489 62.1824 97.5728C62.1642 97.6967 62.1423 97.8861 62.1095 98.123C62.0512 98.6039 61.9164 99.3071 61.8764 100.229C61.6979 102.826 61.8115 105.436 62.2152 108.008C62.2771 108.416 62.3391 108.831 62.4047 109.258C62.4703 109.684 62.565 110.114 62.6488 110.555C62.8055 111.444 63.0314 112.351 63.239 113.298C63.6981 115.178 64.241 117.179 64.8714 119.267C65.5017 121.354 66.1976 123.533 66.9118 125.796C67.6259 128.058 68.2963 130.423 69.0979 132.81C69.8998 135.129 70.5641 137.495 71.0873 139.893C71.5675 142.138 71.6905 144.445 71.4516 146.728C71.2362 148.802 70.5428 150.797 69.4258 152.558C68.9104 153.355 68.2248 154.028 67.4182 154.529C66.6497 154.981 65.7487 155.153 64.8677 155.017C64.0929 154.877 63.3285 154.685 62.5796 154.441C62.4069 154.386 62.2303 154.343 62.0513 154.314L61.7889 154.27C61.7051 154.27 61.6177 154.27 61.5302 154.27C61.3605 154.256 61.1898 154.256 61.0201 154.27C60.8562 154.284 60.6932 154.307 60.5319 154.339C59.4429 154.594 58.3766 154.938 57.3438 155.367C56.6845 155.629 56.0028 155.83 55.307 155.968L54.9864 156.012H54.7568H54.5674C54.5674 156.012 54.6293 156.012 54.7532 155.99L54.9864 155.972L55.2997 155.913C55.9895 155.762 56.6649 155.551 57.3183 155.283C58.352 154.84 59.4209 154.485 60.5137 154.219C60.6785 154.185 60.8451 154.161 61.0128 154.146C61.1857 154.125 61.36 154.119 61.5339 154.128C61.6213 154.128 61.7124 154.128 61.8035 154.128L62.0731 154.172C62.2558 154.215 62.4359 154.268 62.6124 154.332C63.3565 154.57 64.1162 154.756 64.8859 154.89C65.7315 155.017 66.5951 154.848 67.3308 154.412C68.1171 153.92 68.7842 153.259 69.2837 152.478C70.3796 150.733 71.0591 148.759 71.2694 146.71C71.5024 144.444 71.3795 142.157 70.9051 139.929C70.3816 137.539 69.7186 135.181 68.9194 132.868C68.1214 130.481 67.4619 128.109 66.7332 125.85C66.0045 123.591 65.3305 121.405 64.7038 119.314C64.0771 117.222 63.5415 115.222 63.086 113.335C62.8783 112.384 62.6561 111.473 62.5067 110.584C62.4229 110.139 62.3354 109.706 62.2662 109.28C62.197 108.853 62.1423 108.434 62.084 108.026C61.6887 105.446 61.5945 102.828 61.8035 100.225C61.8536 99.5176 61.9437 98.8133 62.0731 98.1157C62.1132 97.8825 62.1423 97.7003 62.1642 97.5691C62.1861 97.438 62.2006 97.387 62.2006 97.387Z" fill="#263238"/>
<path d="M62.2011 97.387C61.6852 97.3677 61.1726 97.2969 60.6708 97.1756C59.2711 96.8967 57.9046 96.4717 56.5937 95.9077C54.6604 95.0381 52.8714 93.8782 51.2886 92.4682C49.3258 90.7486 47.8061 88.5815 46.8581 86.1502C45.9837 83.699 45.6119 81.0968 45.765 78.4988C45.8224 77.3701 45.9379 76.2452 46.1111 75.1285C46.2569 74.0791 46.4136 73.1063 46.5848 72.2136C46.8522 70.8142 47.1989 69.431 47.6232 68.0709C47.7726 67.59 47.8928 67.2183 47.9876 66.9778L48.086 66.6936C48.1115 66.6281 48.126 66.5953 48.1297 66.5989C48.1333 66.6026 48.1297 66.6317 48.1042 66.6973C48.0787 66.7629 48.0568 66.8685 48.024 66.9888C47.9439 67.2547 47.8345 67.6264 47.6961 68.1001C47.4228 69.0692 47.0439 70.4756 46.7196 72.2428C46.5593 73.1282 46.4099 74.101 46.2715 75.1576C46.133 76.2142 45.9836 77.3255 45.9399 78.5133C45.7991 81.087 46.1706 83.663 47.033 86.0919C47.9711 88.4948 49.4702 90.6385 51.4052 92.3443C52.9714 93.749 54.7386 94.912 56.6483 95.7947C57.9489 96.3644 59.3023 96.8049 60.689 97.11C61.6618 97.3177 62.2485 97.387 62.2011 97.387Z" fill="#263238"/>
<path d="M81.0564 72.9496C81.0564 72.9496 81.0564 72.9788 81.0309 73.0334L80.9435 73.2666C80.8561 73.4816 80.7395 73.7804 80.5791 74.1557C80.2731 74.9281 79.8504 76.054 79.3622 77.4531C78.874 78.8522 78.3092 80.5355 77.6461 82.3865C76.9527 84.406 76.1299 86.3788 75.183 88.2927C74.6799 89.28 74.1102 90.2319 73.4779 91.1419C72.8831 91.9882 72.211 92.7774 71.4703 93.4993C70.2112 94.7234 68.7263 95.6911 67.098 96.3486C66.0043 96.7858 64.8654 97.0999 63.7022 97.285C63.2905 97.3469 62.9735 97.376 62.7512 97.4016L62.5035 97.4271C62.4745 97.4319 62.445 97.4319 62.416 97.4271L62.4998 97.4052L62.7476 97.3651L63.6876 97.2121C64.8383 96.9989 65.964 96.6681 67.047 96.2247C68.6491 95.557 70.1086 94.5886 71.3464 93.3718C72.0756 92.6552 72.7379 91.8734 73.3248 91.0363C73.949 90.1308 74.5125 89.1851 75.0118 88.2052C75.9573 86.2998 76.7823 84.3369 77.4821 82.3282C78.1416 80.4809 78.7355 78.8158 79.2347 77.4094C79.7338 76.0029 80.1856 74.8917 80.5099 74.1302C80.6702 73.7476 80.8087 73.4525 80.8961 73.2521L81.0054 73.0298C81.0174 73.0002 81.0347 72.973 81.0564 72.9496Z" fill="#263238"/>
<path d="M14.7762 117.368L7.88625 127.268C2.85814 134.682 4.19897 141.387 8.70241 144.757L32.4839 159.091L38.82 152.583L20.2853 135.48L27.3392 126.08L14.7762 117.368Z" fill="#B56760"/>
<path d="M77.4746 90.5298C77.6604 91.3277 87.1847 122.706 88.4417 127.304C89.6987 131.902 93.4152 141.514 98.691 140.279C103.967 139.044 106.525 134.562 106.904 129.377C107.283 124.193 105.534 118.618 103.453 116.242C101.373 113.867 85.9022 89.4258 85.9022 89.4258L77.4746 90.5298Z" fill="#B56760"/>
<path d="M82.4435 73.9006C82.4435 73.9006 80.3777 78.4988 78.9057 80.8525C77.4337 83.2063 77.4737 90.5298 77.4737 90.5298L85.8066 90.4934L88.7469 76.1159L89.2679 69.9437L85.8102 61.0571C85.3818 61.2125 85.0118 61.4965 84.7509 61.8702C84.49 62.2439 84.351 62.6891 84.3528 63.1448C84.3127 64.7954 84.4876 64.3326 84.4876 64.3326C84.4876 64.3326 83.1212 63.9683 83.205 66.3001C83.2888 68.632 83.1504 71.5979 83.1504 71.5979L82.4435 73.9006Z" fill="#B56760"/>
<path d="M83.1548 71.6234C83.1463 71.5715 83.1463 71.5186 83.1548 71.4667C83.1548 71.3465 83.1548 71.1971 83.1548 71.0149C83.1548 70.5995 83.1548 70.0311 83.1548 69.3316C83.1548 68.632 83.1548 67.743 83.1548 66.7811C83.1378 66.2605 83.1806 65.7397 83.2823 65.2289C83.3378 64.9441 83.4629 64.6775 83.6466 64.4529C83.7595 64.3355 83.9059 64.256 84.0658 64.2253C84.2256 64.1947 84.3911 64.2143 84.5393 64.2816L85.0385 64.799V64.8172C85.268 65.4439 85.483 66.1034 85.6615 66.7884C86.0505 68.1573 86.2635 69.5703 86.2955 70.993C86.3298 72.1495 86.2394 73.3064 86.0259 74.4435C85.8328 75.409 85.6069 76.1742 85.4538 76.7025L85.2717 77.3073C85.2546 77.3794 85.2289 77.4491 85.1952 77.515C85.2015 77.441 85.2149 77.3678 85.2352 77.2964C85.2753 77.1361 85.3227 76.932 85.3846 76.6806C85.5121 76.1487 85.7162 75.3799 85.8947 74.418C86.0883 73.2885 86.164 72.1419 86.1206 70.9967C86.0995 69.5945 85.9036 68.2004 85.5377 66.8467C85.3591 66.1653 85.1478 65.5131 84.9219 64.8901L84.9401 64.9229L84.4446 64.4018H84.4701C84.3561 64.3502 84.2288 64.3355 84.106 64.3596C83.9832 64.3838 83.871 64.4457 83.7851 64.5367C83.6161 64.7355 83.4996 64.9735 83.4462 65.2289C83.3429 65.7248 83.2977 66.231 83.3114 66.7374C83.2896 67.7066 83.2714 68.5591 83.2568 69.2879C83.2422 70.0166 83.2203 70.5558 83.2094 70.9748C83.2094 71.1534 83.2094 71.3027 83.1912 71.423C83.1879 71.4911 83.1756 71.5585 83.1548 71.6234Z" fill="#8A4A43"/>
<path d="M85.9753 89.6735C85.4293 89.8283 84.8745 89.95 84.3138 90.0379C83.7682 90.1943 83.2133 90.316 82.6523 90.4022C83.1602 90.1346 83.7076 89.9501 84.2737 89.8557C84.8279 89.7067 85.4021 89.6452 85.9753 89.6735Z" fill="#8A4A43"/>
<path d="M78.2797 82.4265C78.2503 82.5862 78.2126 82.7443 78.1668 82.9002C78.0677 83.3281 77.9923 83.7611 77.9409 84.1973C77.7915 85.2903 77.6895 86.8388 77.6203 88.5404C77.6203 88.9667 77.5911 89.382 77.5765 89.7828C77.555 90.164 77.5745 90.5463 77.6348 90.9233C77.7367 91.5651 77.8865 92.1984 78.083 92.8179C78.2469 93.3499 78.4 93.7725 78.5056 94.0677C78.569 94.2175 78.6202 94.3723 78.6587 94.5304C78.569 94.3944 78.4944 94.249 78.4364 94.0968C78.3125 93.809 78.1376 93.39 77.9555 92.858C77.7377 92.2364 77.572 91.5978 77.4599 90.9488C77.394 90.5614 77.3708 90.168 77.3907 89.7756C77.3907 89.3748 77.4162 88.9594 77.4308 88.5331C77.4692 87.0699 77.5908 85.6102 77.7951 84.1608C77.8618 83.7225 77.9579 83.2891 78.083 82.8637C78.118 82.7481 78.1607 82.6349 78.2105 82.5249C78.2542 82.4629 78.2797 82.4229 78.2797 82.4265Z" fill="#8A4A43"/>
</g>
</svg>
