<svg width="24" height="24" viewBox="0 0 24 24" fill="none" xmlns="http://www.w3.org/2000/svg">
<g clip-path="url(#clip0_176_1191)">
<path d="M20.0003 0.000196997H18.2433C17.7177 -0.00119256 17.197 0.101676 16.7114 0.302849C16.2258 0.504022 15.7849 0.799505 15.4143 1.1722L12.1723 4.4142C11.4241 5.16553 11.0029 6.1819 11.0003 7.2422V10.7052C7.73427 13.1202 3.41927 16.3382 2.87927 16.8792C2.44417 17.3172 2.15517 17.8791 2.05187 18.4877C1.94857 19.0964 2.03604 19.7222 2.30227 20.2792L0.293275 22.2932C0.105804 22.4807 0.000488281 22.735 0.000488281 23.0002C0.000488281 23.2654 0.105804 23.5197 0.293275 23.7072C0.480802 23.8947 0.735111 24 1.00027 24C1.26544 24 1.51975 23.8947 1.70727 23.7072L3.71427 21.7002C4.27142 21.9719 4.89973 22.0622 5.51085 21.9584C6.12198 21.8545 6.68518 21.5617 7.12127 21.1212C7.66227 20.5802 10.8803 16.2662 13.3003 13.0002H16.7623C17.2879 13.0016 17.8086 12.8987 18.2942 12.6975C18.7798 12.4964 19.2206 12.2009 19.5913 11.8282L22.8333 8.5862C23.5796 7.83405 23.999 6.81778 24.0003 5.7582V4.0002C24.0003 2.93933 23.5788 1.92192 22.8287 1.17177C22.0786 0.421624 21.0611 0.000196997 20.0003 0.000196997V0.000196997ZM5.70727 19.7072C5.51714 19.8897 5.26381 19.9916 5.00027 19.9916C4.73674 19.9916 4.48341 19.8897 4.29327 19.7072C4.1058 19.5197 4.00049 19.2654 4.00049 19.0002C4.00049 18.735 4.1058 18.4807 4.29327 18.2932C4.63227 17.9572 7.29327 15.9502 10.2413 13.7592C8.04927 16.7062 6.04227 19.3692 5.70727 19.7072V19.7072ZM22.0003 5.7582C21.999 6.28835 21.7884 6.79653 21.4143 7.1722L18.1723 10.4142C17.9868 10.6005 17.7663 10.7482 17.5234 10.8488C17.2805 10.9494 17.0201 11.0008 16.7573 11.0002H14.7713L15.7623 9.6522L19.7073 5.7072C19.8028 5.61495 19.879 5.50461 19.9314 5.3826C19.9838 5.2606 20.0114 5.12938 20.0125 4.9966C20.0137 4.86382 19.9884 4.73214 19.9381 4.60924C19.8878 4.48635 19.8136 4.37469 19.7197 4.2808C19.6258 4.18691 19.5141 4.11266 19.3912 4.06238C19.2683 4.01209 19.1367 3.98679 19.0039 3.98795C18.8711 3.9891 18.7399 4.01669 18.6179 4.0691C18.4959 4.1215 18.3855 4.19769 18.2933 4.2932L14.3493 8.2372L13.0003 9.2292V7.2422C13.0016 6.71205 13.2122 6.20386 13.5863 5.8282L16.8283 2.5862C17.0137 2.3999 17.2343 2.2522 17.4771 2.15162C17.72 2.05104 17.9804 1.99957 18.2433 2.0002H20.0003C20.5307 2.0002 21.0394 2.21091 21.4145 2.58598C21.7896 2.96106 22.0003 3.46976 22.0003 4.0002V5.7582Z" fill="#455A64"/>
</g>
<defs>
<clipPath id="clip0_176_1191">
<rect width="24" height="24" fill="white"/>
</clipPath>
</defs>
</svg>
