<svg width="18" height="18" viewBox="0 0 18 18" fill="none" xmlns="http://www.w3.org/2000/svg">
<path d="M14.25 3H13.869L12.231 0.876C12.0199 0.604355 11.7497 0.384312 11.441 0.232541C11.1323 0.0807686 10.793 0.00124728 10.449 0L7.551 0C7.20697 0.00124728 6.86774 0.0807686 6.559 0.232541C6.25026 0.384312 5.9801 0.604355 5.769 0.876L4.131 3H3.75C2.7558 3.00119 1.80267 3.39666 1.09966 4.09966C0.396661 4.80267 0.00119089 5.7558 0 6.75L0 14.25C0.00119089 15.2442 0.396661 16.1973 1.09966 16.9003C1.80267 17.6033 2.7558 17.9988 3.75 18H14.25C15.2442 17.9988 16.1973 17.6033 16.9003 16.9003C17.6033 16.1973 17.9988 15.2442 18 14.25V6.75C17.9988 5.7558 17.6033 4.80267 16.9003 4.09966C16.1973 3.39666 15.2442 3.00119 14.25 3V3ZM6.957 1.7925C7.02725 1.70179 7.11727 1.6283 7.2202 1.57761C7.32313 1.52693 7.43627 1.50038 7.551 1.5H10.449C10.5637 1.50049 10.6768 1.52709 10.7797 1.57776C10.8826 1.62844 10.9727 1.70187 11.043 1.7925L11.9745 3H6.0255L6.957 1.7925ZM16.5 14.25C16.5 14.8467 16.2629 15.419 15.841 15.841C15.419 16.2629 14.8467 16.5 14.25 16.5H3.75C3.15326 16.5 2.58097 16.2629 2.15901 15.841C1.73705 15.419 1.5 14.8467 1.5 14.25V6.75C1.5 6.15326 1.73705 5.58097 2.15901 5.15901C2.58097 4.73705 3.15326 4.5 3.75 4.5H14.25C14.8467 4.5 15.419 4.73705 15.841 5.15901C16.2629 5.58097 16.5 6.15326 16.5 6.75V14.25Z" fill="white"/>
<path d="M9 5.99994C8.10999 5.99994 7.23996 6.26386 6.49994 6.75833C5.75991 7.25279 5.18314 7.9556 4.84254 8.77786C4.50195 9.60013 4.41283 10.5049 4.58647 11.3778C4.7601 12.2508 5.18869 13.0526 5.81802 13.6819C6.44736 14.3113 7.24918 14.7398 8.1221 14.9135C8.99501 15.0871 9.89981 14.998 10.7221 14.6574C11.5443 14.3168 12.2471 13.74 12.7416 13C13.2361 12.26 13.5 11.39 13.5 10.4999C13.4988 9.30683 13.0243 8.16293 12.1807 7.31927C11.337 6.47562 10.1931 6.00113 9 5.99994V5.99994ZM9 13.4999C8.40666 13.4999 7.82664 13.324 7.33329 12.9943C6.83994 12.6647 6.45543 12.1962 6.22836 11.648C6.0013 11.0998 5.94189 10.4966 6.05765 9.91467C6.1734 9.33273 6.45912 8.79818 6.87868 8.37862C7.29824 7.95906 7.83279 7.67334 8.41473 7.55758C8.99667 7.44183 9.59987 7.50124 10.1481 7.7283C10.6962 7.95536 11.1648 8.33988 11.4944 8.83323C11.8241 9.32658 12 9.9066 12 10.4999C12 11.2956 11.6839 12.0587 11.1213 12.6213C10.5587 13.1839 9.79565 13.4999 9 13.4999Z" fill="white"/>
</svg>
