<svg width="24" height="24" viewBox="0 0 24 24" fill="none" xmlns="http://www.w3.org/2000/svg">
<path d="M19.9998 0.000196997H18.2428C17.7171 -0.00119256 17.1965 0.101676 16.7109 0.302849C16.2253 0.504022 15.7844 0.799505 15.4138 1.1722L12.1718 4.4142C11.4236 5.16553 11.0024 6.1819 10.9998 7.2422V10.9902C8.14478 12.9762 3.49078 16.2662 2.87878 16.8792C2.44368 17.3172 2.15468 17.8791 2.05138 18.4877C1.94808 19.0964 2.03554 19.7222 2.30178 20.2792L0.292786 22.2932C0.105315 22.4807 0 22.735 0 23.0002C0 23.2654 0.105315 23.5197 0.292786 23.7072C0.480314 23.8947 0.734621 24 0.999785 24C1.26495 24 1.51926 23.8947 1.70678 23.7072L3.71378 21.7002C4.27093 21.9719 4.89923 22.0622 5.51036 21.9584C6.12148 21.8545 6.68468 21.5617 7.12078 21.1212C7.73378 20.5092 11.0208 15.8552 13.0098 13.0002H16.7568C17.2824 13.0016 17.8031 12.8987 18.2886 12.6975C18.7742 12.4964 19.2151 12.2009 19.5858 11.8282L22.8278 8.5862C23.5759 7.83487 23.9971 6.8185 23.9998 5.7582V4.0002C23.9998 2.93933 23.5783 1.92192 22.8282 1.17177C22.078 0.421624 21.0606 0.000196997 19.9998 0.000196997V0.000196997ZM19.7068 5.7072L14.7068 10.7072C14.5182 10.8894 14.2656 10.9901 14.0034 10.9879C13.7412 10.9856 13.4904 10.8804 13.305 10.695C13.1195 10.5096 13.0144 10.2588 13.0121 9.9966C13.0098 9.7344 13.1106 9.4818 13.2928 9.2932L18.2928 4.2932C18.385 4.19769 18.4954 4.1215 18.6174 4.0691C18.7394 4.01669 18.8706 3.9891 19.0034 3.98795C19.1361 3.98679 19.2678 4.01209 19.3907 4.06238C19.5136 4.11266 19.6253 4.18691 19.7192 4.2808C19.8131 4.37469 19.8873 4.48635 19.9376 4.60924C19.9879 4.73214 20.0132 4.86382 20.012 4.9966C20.0109 5.12938 19.9833 5.2606 19.9309 5.3826C19.8785 5.50461 19.8023 5.61495 19.7068 5.7072V5.7072Z" fill="#FF7A3E"/>
</svg>
